<svg data-v-0dd9719b="" version="1.0" xmlns="http://www.w3.org/2000/svg" xmlns:xlink="http://www.w3.org/1999/xlink" width="100%" height="100%" viewBox="0 0 340.000000 250.000000" preserveAspectRatio="xMidYMid meet" color-interpolation-filters="sRGB" style="margin: auto;"> <rect data-v-0dd9719b="" x="0" y="0" width="100%" height="100%" fill="#fff" fill-opacity="1" class="background"></rect> <rect data-v-0dd9719b="" x="0" y="0" width="100%" height="100%" fill="url(#watermark)" fill-opacity="1" class="watermarklayer"></rect> <g data-v-0dd9719b="" fill="#00adee" class="icon-text-wrapper icon-svg-group iconsvg" transform="translate(73.25499725341797,94.99880027770996)"><g class="iconsvg-imagesvg" transform="translate(0,0)"><g><rect fill="#00adee" fill-opacity="0" stroke-width="2" x="0" y="0" width="60" height="60.00240009600384" class="image-rect"></rect> <svg x="0" y="0" width="60" height="60.00240009600384" filtersec="colorsb1844034378" class="image-svg-svg primary" style="overflow: visible;"><svg xmlns="http://www.w3.org/2000/svg" viewBox="13.189994812011719 9 961.3399047851562 961.3800048828125"><path opacity=".6" fill="#00ADEE" d="M974.52 119.83C974.52 58.65 924.93 9 863.68 9H341.2c-61.24 0-110.85 49.65-110.85 110.83v522.54c0 61.24 49.61 110.83 110.85 110.83h522.48c61.25 0 110.85-49.58 110.85-110.83V119.83z"></path><path opacity=".81" fill="#00ADEE" d="M970.29 825.97c0-13.91-11.28-25.15-25.17-25.15H826.33c-13.88 0-25.2 11.25-25.2 25.15v118.79c0 13.91 11.32 25.19 25.2 25.19h118.78c13.89 0 25.17-11.28 25.17-25.19V825.97zM202.19 25.49c0-8.93-7.27-16.2-16.21-16.2h-76.62c-8.98 0-16.22 7.27-16.22 16.2v76.59c0 9 7.24 16.25 16.22 16.25h76.62c8.94 0 16.21-7.25 16.21-16.25V25.49z"></path><path opacity=".8" fill="#00ADEE" d="M612.85 459.97c0-49.35-39.96-89.29-89.29-89.29h-421.1c-49.29 0-89.27 39.94-89.27 89.29v421.08c0 49.35 39.99 89.33 89.27 89.33h421.1c49.32 0 89.29-39.98 89.29-89.33V459.97z"></path></svg></svg> <!----></g></g> <g transform="translate(67,6.601198196411133)"><g data-gra="path-name" fill-rule="" class="tp-name iconsvg-namesvg"><g transform="scale(1)"><g><path d="M38.94-30.55C38.94-40.76 31.72-46.15 20.09-46.15 9.62-46.15 2.6-40.95 2.6-33.93 2.6-17.36 30.16-23.34 30.16-12.61 30.16-8.91 26.32-6.5 20.87-6.5 14.56-6.5 10.86-9.75 10.86-15.02L1.95-15.02C1.95-4.23 9.55 0.65 21.06 0.65 31.59 0.65 38.94-4.62 38.94-12.61 38.94-29.12 11.12-24.12 11.12-33.8 11.12-37.7 15.86-39.07 20.15-39.07 26.07-39.07 30.16-35.75 30.16-30.55ZM66.63 0.65C79.56 0.65 86.58-6.96 88.08-16.38L79.17-16.38C77.67-10.72 73.06-7.02 66.36-7.02 57.46-7.02 51.8-14.88 51.8-23.4 51.8-32.37 58.11-38.41 66.23-38.41 73.97-38.41 78-34.06 79.3-28.67L88.08-28.67C86.78-39.84 78-46.15 65.65-46.15 51.8-46.15 43.22-35.69 43.22-22.75 43.22-9.88 51.09 0.65 66.63 0.65ZM112.52-18.2L128.44-45.5 118.5-45.5 108.49-27.3 98.28-45.5 88.21-45.5 103.74-18.2 103.74 0 112.52 0Z" transform="translate(-1.9500000476837158, 46.150001525878906)"></path></g> <!----> <!----> <!----> <!----> <!----> <!----> <!----></g></g> <!----></g></g><defs v-gra="od"></defs></svg>